<?xml version="1.0" standalone="no"?>
<!DOCTYPE svg PUBLIC "-//W3C//DTD SVG 20010904//EN"
 "http://www.w3.org/TR/2001/REC-SVG-20010904/DTD/svg10.dtd">
<svg version="1.0" xmlns="http://www.w3.org/2000/svg"
 width="48" height="48" viewBox="0 0 2400.000000 2400.000000"
 preserveAspectRatio="xMidYMid meet">

<g transform="translate(0.000000,2400.000000) scale(0.100000,-0.100000)"
fill="#000000" stroke="none">
<path d="M4576 19878 c-219 -898 -437 -1790 -483 -1981 l-85 -348 -152 -126
c-1325 -1107 -2086 -2223 -2315 -3393 -50 -254 -56 -329 -56 -675 0 -358 7
-431 65 -707 134 -632 443 -1228 919 -1770 138 -157 411 -424 570 -557 1038
-867 2475 -1453 4061 -1655 489 -63 814 -80 1387 -73 436 5 630 16 957 52 76
9 140 14 142 12 8 -8 -54 -769 -107 -1312 -199 -2042 -457 -3399 -739 -3886
-27 -46 -73 -103 -120 -149 -89 -86 -100 -104 -100 -160 0 -54 17 -85 82 -146
270 -255 1239 -507 2288 -594 213 -18 689 -24 890 -11 567 36 996 151 1254
335 90 64 267 236 341 331 65 84 126 179 170 264 l25 51 138 0 c492 0 1079
160 1652 450 522 265 1092 669 1601 1136 474 435 836 950 1052 1499 256 651
347 1358 308 2395 -6 162 -16 448 -22 636 -25 735 33 1170 201 1498 103 203
231 344 530 583 345 277 628 430 887 479 105 20 279 22 383 4 184 -30 444
-139 663 -277 343 -217 761 -556 1087 -882 250 -251 379 -419 480 -626 88
-181 120 -307 120 -479 0 -259 -100 -470 -334 -701 -295 -294 -707 -523 -1448
-805 -367 -140 -500 -214 -535 -297 -28 -69 30 -127 158 -158 359 -85 1179 7
1776 200 395 127 595 237 794 435 490 488 604 1264 298 2032 -269 676 -830
1290 -1654 1809 -729 460 -1389 651 -1982 574 -466 -61 -882 -276 -1258 -651
-256 -257 -485 -584 -680 -974 -146 -291 -253 -567 -282 -722 -22 -120 -23
-448 -3 -798 22 -372 20 -1129 -3 -1362 -70 -703 -231 -1310 -511 -1919 -138
-300 -274 -523 -464 -760 -561 -700 -1476 -1235 -2607 -1524 l-210 -54 -3 37
c-33 468 -185 951 -487 1547 -227 449 -444 803 -983 1610 -523 783 -691 1045
-777 1214 l-25 51 43 0 c87 0 418 21 632 41 1128 102 2169 381 3060 819 1388
682 2363 1714 2780 2941 146 431 209 817 208 1284 0 373 -31 623 -119 976
-251 1004 -875 1954 -1827 2776 l-37 32 -385 1977 c-212 1088 -387 1979 -388
1981 -2 1 -329 -590 -727 -1315 -397 -724 -726 -1321 -730 -1325 -4 -5 -90 18
-191 52 -959 317 -1957 444 -3234 411 -894 -24 -1733 -89 -3335 -261 -256 -27
-511 -54 -568 -61 -60 -6 -107 -7 -112 -2 -4 5 -342 581 -750 1279 -408 699
-750 1282 -759 1298 -17 27 -22 6 -415 -1605z m758 -3192 c-382 -124 -734
-464 -964 -931 -141 -287 -227 -577 -277 -935 -22 -158 -25 -663 -5 -810 94
-684 332 -1211 709 -1571 273 -261 569 -389 898 -389 349 0 659 142 941 432
343 352 561 834 655 1443 27 169 37 573 20 765 -50 568 -242 1085 -546 1475
-81 105 -260 276 -357 343 -43 29 -115 73 -160 97 -46 25 -80 45 -76 45 3 0
53 -16 110 -36 122 -42 326 -138 458 -216 626 -369 1297 -1087 1961 -2097
l128 -194 -42 -56 c-175 -238 -226 -306 -345 -456 -203 -255 -348 -420 -545
-621 -402 -411 -750 -675 -1182 -899 -111 -58 -152 -74 -200 -79 -33 -4 -89
-13 -125 -21 -36 -8 -100 -15 -144 -15 -43 0 -120 -7 -170 -15 -50 -8 -148
-18 -218 -23 l-127 -7 -283 80 c-156 45 -328 96 -383 115 -936 312 -1639 882
-2170 1760 -101 167 -206 370 -199 383 4 6 40 55 79 107 39 52 154 212 255
355 299 424 495 682 678 895 480 558 963 909 1437 1045 175 50 321 74 189 31z
m8268 -1 c-486 -166 -897 -645 -1106 -1290 -107 -333 -150 -618 -150 -1000 0
-247 10 -375 45 -575 165 -938 716 -1638 1382 -1756 95 -16 284 -18 374 -4
377 61 727 311 993 706 542 809 609 2057 160 2979 -192 393 -463 693 -775 858
-95 50 -80 52 45 6 439 -160 866 -459 1322 -927 348 -358 681 -780 1045 -1324
l165 -248 -48 -67 c-89 -126 -227 -307 -359 -473 -611 -762 -1135 -1214 -1782
-1532 -138 -68 -198 -92 -245 -98 -35 -5 -200 -12 -368 -16 l-305 -6 -300 85
c-321 92 -483 146 -678 228 -850 357 -1513 987 -1991 1891 l-65 123 61 80 c33
44 137 188 231 320 378 533 535 740 720 955 533 617 1032 964 1557 1085 136
31 163 31 72 0z"/>
</g>
</svg>
